<?xml version="1.0"?><svg width="744.09448819" height="1052.3622047" xmlns="http://www.w3.org/2000/svg">
 <title>checked flag red</title>

 <metadata id="metadata7">image/svg+xmlCheckered flagCheckered flag racing race cars</metadata>
 <g>
  <title>Layer 1</title>
  <g id="layer1">
   <path fill="#ff0000" id="path2396" d="m619.607544,727.879089c-1.078186,-2.389771 -25.131104,-62.634705 -53.450806,-133.877625l-51.490356,-129.532654l-11.383087,-6.689331c-20.543701,-12.072662 -44.743469,-17.665466 -62.352509,-14.410248c-26.515411,4.901642 -49.114746,24.188141 -88.68927,75.688324c-28.905212,37.615784 -44.664673,53.150879 -63.210449,62.310791c-14.153687,6.990601 -14.612885,7.080872 -35.705139,7.017273c-23.568863,-0.071106 -32.539291,-2.545166 -51.671677,-14.251282l-9.870865,-6.039429l-54.38559,-136.934479c-29.912056,-75.313965 -54.389153,-138.054871 -54.393517,-139.424225c-0.00544,-1.708191 3.041649,-0.77887 9.707001,2.96048c23.193558,13.01181 47.054008,18.641266 64.087349,15.12027c26.440781,-5.465576 47.231323,-23.074402 85.645111,-72.5383c25.788559,-33.206879 41.716599,-50.500626 54.628159,-59.312088c26.714417,-18.231155 59.229553,-19.255508 91.661194,-2.887634c12.200623,6.157501 12.543396,6.231689 12.543396,2.714676c0,-2.180786 7.752167,-5.4189 13.505554,-5.641312c1.289886,-0.049866 221.503662,551.071213 221.503662,554.349289c0,0.691589 -2.004395,1.760498 -4.454285,2.375366c-2.449829,0.614868 -5.761292,1.619507 -7.358826,2.232544c-1.913574,0.734314 -3.573486,-0.36792 -4.865051,-3.230408zm-340.527649,-145.710388c5.074371,-1.928162 14.641113,-7.369751 21.25943,-12.092468l12.033295,-8.586792l-3.097534,-7.800049c-1.703644,-4.290039 -6.511841,-16.318787 -10.684937,-26.730591l-7.587372,-18.930573l-11.017303,8.292511c-10.914612,8.215271 -27.216003,15.690125 -34.217529,15.690125c-1.997345,0 -3.631531,0.963928 -3.631531,2.14209c0,1.178101 4.305634,13.252441 9.568054,26.831726c10.789276,27.840942 10.481873,27.603027 27.375427,21.184021zm-38.793945,-49.250061c0,-0.518433 -4.579895,-12.354919 -10.177567,-26.303284c-5.597656,-13.948395 -10.177567,-25.95575 -10.177567,-26.683075c0,-0.727295 4.788086,-2.704163 10.640182,-4.393036c11.269012,-3.252167 19.328644,-7.510864 30.33638,-16.029663c3.708588,-2.870087 7.157379,-5.218323 7.66394,-5.218323c0.506561,0 5.300049,11.033386 10.652191,24.518677c5.352173,13.48526 10.513062,25.351379 11.468719,26.369141c1.956543,2.083649 11.773804,-8.216522 29.542267,-30.995331c6.152679,-7.887604 11.363129,-14.341095 11.578735,-14.341095c0.215637,0 4.827393,11.241577 10.248352,24.981293c5.42099,13.739716 10.504456,24.981293 11.296631,24.981293c0.792175,0 5.409637,-5.204437 10.261017,-11.56543c4.851379,-6.360962 13.678375,-16.668732 19.615601,-22.906128l10.794922,-11.340698l-9.043365,-22.892914c-4.973846,-12.591095 -9.617981,-24.49472 -10.320313,-26.452484c-1.144714,-3.190887 -2.15152,-2.71167 -9.71936,4.62616c-4.643311,4.502167 -13.842896,15.055603 -20.443512,23.452087c-6.600647,8.396515 -12.284637,15.266357 -12.631134,15.266357c-0.346497,0 -5.368622,-12.118103 -11.160278,-26.929077c-5.791687,-14.811005 -10.747955,-26.677124 -11.013977,-26.369141c-0.266022,0.307953 -7.13559,8.887024 -15.265686,19.064575c-8.130066,10.177582 -17.245972,20.80896 -20.257507,23.625336l-5.475525,5.120667l-9.799774,-25.4758c-5.389877,-14.011688 -10.472855,-26.205933 -11.295547,-27.098389c-0.825851,-0.895874 -5.112671,1.341156 -9.571304,4.994629c-8.967896,7.348541 -25.070023,15.411591 -34.293228,17.172211c-3.307709,0.631409 -6.014008,1.709503 -6.014008,2.395752c0,0.686249 4.579895,12.660034 10.177551,26.608429c5.597656,13.948364 10.177567,25.784851 10.177567,26.303284c0,1.983917 -18.197037,0.820251 -28.292404,-1.809265c-5.810913,-1.51355 -16.39473,-5.687561 -23.519592,-9.275604c-7.124878,-3.588013 -12.954315,-6.265991 -12.954315,-5.95108c0,0.314911 4.800949,12.607849 10.668762,27.317627l10.668747,26.745056l13.849915,6.920288c7.617462,3.806152 18.42984,8.123047 24.027496,9.593201c9.89946,2.599792 27.756989,3.86969 27.756989,1.973755zm258.978241,-101.99173c-5.223877,-13.102386 -10.411713,-24.928375 -11.528503,-26.279968c-3.115295,-3.770325 -17.531281,-10.572296 -31.602753,-14.911285c-14.329437,-4.418549 -33.636047,-5.379486 -32.118256,-1.598572c0.510712,1.272217 5.323334,13.346497 10.694641,26.831757l9.766083,24.518677l11.514008,0c12.427612,0 29.919739,4.801941 43.361786,11.903687c4.579926,2.419678 8.570984,4.165161 8.869019,3.878845c0.298065,-0.286316 -3.732147,-11.240753 -8.956024,-24.34314zm-304.233017,-8.56427c0.489899,-1.276642 -3.61998,-13.559113 -9.133057,-27.294403c-5.513062,-13.73526 -9.638062,-25.597717 -9.166672,-26.361023c0.47139,-0.763336 2.025772,-1.387878 3.454147,-1.387878c6.074738,0 23.815994,-8.23526 34.184052,-15.867798c11.047653,-8.132813 11.206421,-8.183014 12.798294,-4.048065c6.830139,17.741425 19.414307,48.77063 20.084656,49.523346c1.053879,1.183319 14.230682,-13.536957 28.55307,-31.897766c6.143036,-7.875061 11.77124,-13.946167 12.507202,-13.491333c0.735931,0.454865 5.740356,12.137146 11.120941,25.960693c5.380554,13.823547 10.386749,24.89093 11.124847,24.594147c0.738098,-0.296783 8.037659,-8.866699 16.221283,-19.04425c8.183594,-10.177551 17.026093,-20.499481 19.649994,-22.937592l4.770752,-4.432922l1.722656,4.432922c0.947449,2.43811 5.58844,14.391663 10.313324,26.563446c4.724823,12.171783 8.889587,22.429443 9.254913,22.7948c0.365326,0.365356 4.701477,-2.433167 9.635834,-6.218903c9.455688,-7.254639 26.316467,-15.556091 31.692474,-15.603912c8.911316,-0.079285 8.742157,-2.302856 -2.270905,-29.85321c-5.838959,-14.60675 -10.785828,-26.735199 -10.993042,-26.952148c-0.207214,-0.216949 -4.501587,0.69696 -9.54306,2.030884c-11.353851,3.00412 -21.776489,8.274689 -31.163696,15.758972c-3.956543,3.15451 -7.703735,5.728729 -8.327087,5.720551c-0.623383,-0.008179 -5.631927,-11.457916 -11.130066,-25.443909c-5.498138,-13.985962 -10.303711,-25.793427 -10.678955,-26.238831c-1.238525,-1.46994 -17.405243,15.367157 -28.762024,29.954651c-6.140717,7.887604 -11.757721,14.341125 -12.482178,14.341125c-0.724518,0 -5.770813,-11.287659 -11.213989,-25.08371c-5.443207,-13.796021 -10.39328,-25.390564 -11.000183,-25.765656c-0.606873,-0.375092 -7.059723,6.957214 -14.339645,16.293976c-13.211563,16.944366 -25.795685,30.388916 -27.029388,28.877502c-0.358582,-0.439331 -5.086395,-12.040344 -10.506241,-25.78006c-5.419846,-13.739685 -10.071472,-25.264526 -10.33696,-25.610748c-0.265472,-0.346191 -4.918121,2.673401 -10.339203,6.710205c-12.70369,9.459808 -16.861542,11.583771 -29.566147,15.10321l-10.457275,2.896881l9.994644,24.90213c5.49707,13.696167 9.99469,26.070068 9.99469,27.497559c0,2.097229 -2.347427,2.344055 -12.228989,1.285828c-13.691635,-1.466248 -26.640274,-5.503235 -41.013504,-12.786682c-5.320328,-2.696014 -9.673355,-4.193604 -9.673355,-3.327942c0,5.258209 19.304794,49.996887 22.994003,53.288391c12.154938,10.844666 58.683548,23.673767 61.283844,16.897522zm260.409134,-101.496826l-10.677856,-26.639862l-11.467621,-6.064728c-18.894623,-9.992493 -52.373474,-17.014679 -52.373474,-10.985321c0,1.308929 4.497192,13.5914 9.993744,27.294373l9.993744,24.91452l12.100494,1.224152c15.034454,1.520996 28.709534,5.604431 41.930695,12.52066c5.597656,2.928253 10.402679,5.110779 10.677826,4.850067c0.275177,-0.260712 -4.304718,-12.461945 -10.177551,-27.113861zm-102.459717,-36.671661c3.663208,-1.84021 9.991272,-4.354553 14.062286,-5.587311c4.071014,-1.232819 8.38974,-2.548065 9.597168,-2.922852c1.455811,-0.451874 -1.245789,-9.286804 -8.020355,-26.228577c-5.618591,-14.050964 -10.951569,-26.31163 -11.851044,-27.245941c-3.794495,-3.941467 -26.656525,5.842484 -43.947601,18.807663l-5.542206,4.15564l-10.148254,-25.363556c-5.581573,-13.949936 -11.033722,-25.658707 -12.115967,-26.01944c-1.843719,-0.614578 -31.373474,33.587128 -37.216064,43.104065c-2.456055,4.000641 -1.885239,6.317169 7.281631,29.551071c5.470657,13.86557 10.425766,25.506256 11.011398,25.868195c0.585632,0.361938 7.269745,-7.186279 14.853607,-16.773834c13.97226,-17.663727 25.360809,-29.830246 26.559418,-28.373749c0.543701,0.66066 14.062775,34.187897 19.915802,49.391113c1.608215,4.177246 1.617798,4.174988 10.25473,-2.417725c4.75473,-3.629364 11.642212,-8.104523 15.30545,-9.944763zm68.651031,-47.302368c0,-0.492203 -4.202728,-11.52562 -9.339417,-24.518692c-10.587097,-26.779678 -12.661469,-29.163071 -32.647644,-37.511017c-12.541443,-5.238388 -40.085724,-11.058533 -42.222595,-8.921661c-0.538513,0.538498 3.794647,13.177032 9.629242,28.085617l10.608337,27.106491l11.168304,0.024765c11.665375,0.025848 36.964203,7.5504 45.50943,13.535736c4.36261,3.055664 7.294342,3.939392 7.294342,2.198761z"/>
  </g>
 </g>
</svg>