<?xml version="1.0" standalone="no"?>
<!DOCTYPE svg PUBLIC "-//W3C//DTD SVG 20010904//EN"
 "http://www.w3.org/TR/2001/REC-SVG-20010904/DTD/svg10.dtd">
<svg version="1.0" xmlns="http://www.w3.org/2000/svg"
 width="512.000000pt" height="512.000000pt" viewBox="0 0 512.000000 512.000000"
 preserveAspectRatio="xMidYMid meet">
<metadata>
Created by potrace 1.16, written by Peter Selinger 2001-2019
</metadata>
<g transform="translate(0.000000,512.000000) scale(0.100000,-0.100000)"
fill="#000000" stroke="none">
<path d="M1900 3330 c-97 -4 -209 -13 -249 -19 -49 -8 -266 -81 -654 -221
-319 -116 -581 -209 -581 -207 -1 1 -8 16 -16 32 l-16 30 -189 0 -190 0 -3
-38 c-4 -47 13 -75 73 -118 l45 -32 -35 -63 c-51 -91 -55 -127 -33 -305 10
-85 23 -166 29 -181 6 -15 25 -33 42 -41 41 -20 398 -127 421 -127 15 0 17 6
10 43 -25 147 23 294 132 397 179 169 444 166 619 -7 70 -68 110 -149 126
-254 12 -74 6 -124 -26 -226 l-7 -23 1102 0 c1046 0 1102 1 1095 18 -113 264
59 568 347 613 272 42 528 -197 505 -471 -5 -57 -17 -99 -52 -182 -6 -14 -2
-18 16 -18 61 0 636 93 657 106 34 22 42 54 49 195 6 127 6 127 -20 151 -14
12 -79 51 -145 86 -67 35 -152 89 -191 122 -109 91 -171 136 -227 164 -128 64
-652 156 -889 156 -56 0 -77 6 -143 39 -181 90 -676 297 -802 334 -47 14 -116
30 -155 36 -99 14 -438 20 -645 11z m605 -141 c76 -14 145 -45 282 -127 l113
-66 -43 -21 c-36 -17 -73 -62 -90 -109 -2 -5 -209 -3 -494 4 l-490 13 -57 102
c-31 55 -56 107 -56 113 0 22 29 69 47 78 39 18 700 29 788 13z"/>
<path d="M911 2530 c-151 -32 -265 -156 -291 -316 -25 -155 65 -326 205 -390
286 -131 595 104 535 408 -17 88 -50 147 -114 206 -88 80 -219 116 -335 92z"/>
<path d="M3924 2530 c-108 -23 -210 -104 -261 -208 -25 -51 -28 -67 -28 -162
0 -96 3 -110 29 -161 77 -153 233 -234 398 -208 127 20 231 98 286 217 23 49
27 70 27 152 0 86 -3 101 -31 160 -60 126 -174 205 -309 214 -38 3 -89 1 -111
-4z"/>
</g>
</svg>
